<?xml version="1.0" encoding="UTF-8" standalone="no"?>
<!DOCTYPE svg PUBLIC "-//W3C//DTD SVG 1.1//EN"
 "http://www.w3.org/Graphics/SVG/1.1/DTD/svg11.dtd">
<!-- Generated by graphviz version 2.40.1 (20161225.0304)
 -->
<!-- Title: state transitions Pages: 1 -->
<svg width="330pt" height="200pt"
 viewBox="0.00 0.00 330.00 200.00" xmlns="http://www.w3.org/2000/svg" xmlns:xlink="http://www.w3.org/1999/xlink">
<g id="graph0" class="graph" transform="scale(1 1) rotate(0) translate(4 196)">
<title>state transitions</title>
<polygon fill="#ffffff" stroke="transparent" points="-4,4 -4,-196 326,-196 326,4 -4,4"/>
<g id="clust1" class="cluster state regular">
<title>cluster_NS</title>
<path fill="none" stroke="#000000" stroke-width="2" d="M20,-8C20,-8 302,-8 302,-8 308,-8 314,-14 314,-20 314,-20 314,-172 314,-172 314,-178 308,-184 302,-184 302,-184 20,-184 20,-184 14,-184 8,-178 8,-172 8,-172 8,-20 8,-20 8,-14 14,-8 20,-8"/>
<text text-anchor="start" x="152.6672" y="-165.2" font-family="Helvetica,sans-Serif" font-size="12.00" fill="#000000">NS</text>
</g>
<!-- NS -->
<!-- Wait_state -->
<g id="node2" class="node state regular">
<title>Wait_state</title>
<polygon fill="#ffffff" fill-opacity="0.003922" stroke="transparent" stroke-width="2" points="114,-146 36,-146 36,-110 114,-110 114,-146"/>
<text text-anchor="start" x="46.6614" y="-124.2" font-family="Helvetica,sans-Serif" font-size="12.00" fill="#000000">Wait_state</text>
<path fill="none" stroke="#000000" stroke-width="2" d="M48.3333,-111C48.3333,-111 101.6667,-111 101.6667,-111 107.3333,-111 113,-116.6667 113,-122.3333 113,-122.3333 113,-133.6667 113,-133.6667 113,-139.3333 107.3333,-145 101.6667,-145 101.6667,-145 48.3333,-145 48.3333,-145 42.6667,-145 37,-139.3333 37,-133.6667 37,-133.6667 37,-122.3333 37,-122.3333 37,-116.6667 42.6667,-111 48.3333,-111"/>
</g>
<!-- Wait_state&#45;&gt;Wait_state -->
<g id="edge2" class="edge transition">
<title>Wait_state&#45;&gt;Wait_state</title>
<path fill="none" stroke="#000000" d="M114.0143,-132.8723C126.3043,-132.7979 136,-131.1738 136,-128 136,-125.7684 131.2066,-124.303 124.0883,-123.6037"/>
<polygon fill="#000000" stroke="#000000" points="124.1683,-120.1037 114.0143,-123.1277 123.8379,-127.0958 124.1683,-120.1037"/>
<text text-anchor="start" x="136" y="-125" font-family="Helvetica,sans-Serif" font-size="10.00" fill="#000000">not (cuenta &gt;= 500) &#160;&#160;</text>
</g>
<!-- Echo_state -->
<g id="node3" class="node state regular">
<title>Echo_state</title>
<polygon fill="#ffffff" fill-opacity="0.003922" stroke="transparent" stroke-width="2" points="98,-52 16,-52 16,-16 98,-16 98,-52"/>
<text text-anchor="start" x="26.9868" y="-30.2" font-family="Helvetica,sans-Serif" font-size="12.00" fill="#000000">Echo_state</text>
<path fill="none" stroke="#000000" stroke-width="2" d="M28.3333,-17C28.3333,-17 85.6667,-17 85.6667,-17 91.3333,-17 97,-22.6667 97,-28.3333 97,-28.3333 97,-39.6667 97,-39.6667 97,-45.3333 91.3333,-51 85.6667,-51 85.6667,-51 28.3333,-51 28.3333,-51 22.6667,-51 17,-45.3333 17,-39.6667 17,-39.6667 17,-28.3333 17,-28.3333 17,-22.6667 22.6667,-17 28.3333,-17"/>
</g>
<!-- Wait_state&#45;&gt;Echo_state -->
<g id="edge1" class="edge transition">
<title>Wait_state&#45;&gt;Echo_state</title>
<path fill="none" stroke="#000000" d="M68.344,-109.6582C66.6212,-104.3427 64.9199,-98.491 63.735,-93 61.5951,-83.083 60.1052,-72.0721 59.0817,-62.2738"/>
<polygon fill="#000000" stroke="#000000" points="62.5583,-61.8587 58.1455,-52.2265 55.5885,-62.5081 62.5583,-61.8587"/>
<text text-anchor="start" x="63" y="-78" font-family="Helvetica,sans-Serif" font-size="10.00" fill="#000000">cuenta &gt;= 500 &#160;&#160;</text>
</g>
<!-- Echo_state&#45;&gt;Wait_state -->
<g id="edge3" class="edge transition">
<title>Echo_state&#45;&gt;Wait_state</title>
<path fill="none" stroke="#000000" d="M98.1517,-42.1156C112.9768,-47.2392 128.2044,-55.5513 137,-69 142.8384,-77.927 142.378,-83.7883 137,-93 133.4828,-99.0244 128.5031,-104.0937 122.8766,-108.3361"/>
<polygon fill="#000000" stroke="#000000" points="120.7139,-105.5686 114.2654,-113.975 124.5488,-111.4247 120.7139,-105.5686"/>
<text text-anchor="start" x="141" y="-84" font-family="Helvetica,sans-Serif" font-size="10.00" fill="#000000">centimeters &gt;= 3448 &#160;&#160;</text>
<text text-anchor="start" x="141" y="-72" font-family="Helvetica,sans-Serif" font-size="10.00" fill="#000000">cuenta &gt;= 2900 &#160;&#160;</text>
</g>
<!-- Echo_state&#45;&gt;Echo_state -->
<g id="edge4" class="edge transition">
<title>Echo_state&#45;&gt;Echo_state</title>
<path fill="none" stroke="#000000" d="M98.2026,-38.8643C110.4613,-38.7191 120,-37.0977 120,-34 120,-31.822 115.2842,-30.3737 108.2229,-29.6554"/>
<polygon fill="#000000" stroke="#000000" points="108.3705,-26.1584 98.2026,-29.1357 108.0079,-33.149 108.3705,-26.1584"/>
<text text-anchor="start" x="120" y="-43" font-family="Helvetica,sans-Serif" font-size="10.00" fill="#000000">not (past_echo = &#39;0&#39; and sync_echo = &#39;1&#39;) &#160;&#160;</text>
<text text-anchor="start" x="120" y="-31" font-family="Helvetica,sans-Serif" font-size="10.00" fill="#000000">not (past_echo = &#39;1&#39; and sync_echo = &#39;0&#39;) &#160;&#160;</text>
<text text-anchor="start" x="120" y="-19" font-family="Helvetica,sans-Serif" font-size="10.00" fill="#000000">not (cuenta &gt;= 2900) &#160;&#160;</text>
</g>
</g>
</svg>
